<svg id="Icon_awesome-running" data-name="Icon awesome-running" xmlns="http://www.w3.org/2000/svg" width="25.098" height="30.888" viewBox="0 0 25.098 30.888">
  <path id="Icon_awesome-running-2" data-name="Icon awesome-running" d="M16.41,5.792a2.9,2.9,0,1,0-2.9-2.9A2.9,2.9,0,0,0,16.41,5.792ZM6.859,19.153l-.893,2.083H1.931a1.931,1.931,0,1,0,0,3.861H6.6a2.89,2.89,0,0,0,2.661-1.755l.53-1.238-.644-.38A5.745,5.745,0,0,1,6.859,19.153Zm16.308-5.64H20.511L18.938,10.3a5.789,5.789,0,0,0-3.727-3.073L10.923,5.952A5.767,5.767,0,0,0,6.046,6.986L3.652,8.821A1.93,1.93,0,0,0,6,11.885L8.4,10.05a1.879,1.879,0,0,1,1.525-.37l.887.264-2.26,5.272a3.871,3.871,0,0,0,1.587,4.845l5.127,3.027L13.6,28.38a1.93,1.93,0,1,0,3.684,1.154l1.909-6.1a2.908,2.908,0,0,0-1.306-3.281L14.2,17.975l1.889-4.723,1.223,2.5a2.914,2.914,0,0,0,2.6,1.622h3.257a1.93,1.93,0,1,0,0-3.861Z"/>
</svg>
