<svg id="Icon_awesome-github" data-name="Icon awesome-github" xmlns="http://www.w3.org/2000/svg" width="24.615" height="24" viewBox="0 0 24.615 24">
  <path id="Icon_awesome-github-2" data-name="Icon awesome-github" d="M8.233,19.887c0,.1-.114.179-.258.179-.164.015-.278-.065-.278-.179s.114-.179.258-.179S8.233,19.773,8.233,19.887ZM6.69,19.664c-.035.1.065.213.213.243a.233.233,0,0,0,.308-.1c.03-.1-.065-.213-.213-.258A.255.255,0,0,0,6.69,19.664Zm2.194-.084c-.144.035-.243.129-.228.243s.144.164.293.129.243-.129.228-.228S9.027,19.565,8.883,19.58ZM12.149.563A11.9,11.9,0,0,0,0,12.671,12.442,12.442,0,0,0,8.412,24.542c.635.114.859-.278.859-.6s-.015-2-.015-3.047c0,0-3.474.744-4.2-1.479,0,0-.566-1.444-1.38-1.816,0,0-1.136-.779.079-.764a2.62,2.62,0,0,1,1.916,1.28,2.623,2.623,0,0,0,3.618,1.037,2.758,2.758,0,0,1,.794-1.672c-2.774-.308-5.573-.71-5.573-5.484A3.761,3.761,0,0,1,5.677,9.074,4.689,4.689,0,0,1,5.806,5.7c1.037-.323,3.424,1.34,3.424,1.34a11.724,11.724,0,0,1,6.233,0s2.387-1.667,3.424-1.34a4.687,4.687,0,0,1,.129,3.37A3.858,3.858,0,0,1,20.3,12c0,4.789-2.923,5.171-5.7,5.484a2.935,2.935,0,0,1,.844,2.3c0,1.672-.015,3.742-.015,4.149,0,.323.228.715.859.6a12.327,12.327,0,0,0,8.327-11.861A12.168,12.168,0,0,0,12.149.563ZM4.824,17.679c-.065.05-.05.164.035.258s.194.114.258.05.05-.164-.035-.258S4.888,17.614,4.824,17.679Zm-.536-.4c-.035.065.015.144.114.194a.148.148,0,0,0,.213-.035c.035-.065-.015-.144-.114-.194C4.4,17.212,4.323,17.227,4.288,17.277ZM5.9,19.044c-.079.065-.05.213.065.308.114.114.258.129.323.05s.035-.213-.065-.308C6.109,18.979,5.96,18.964,5.9,19.044Zm-.566-.73c-.079.05-.079.179,0,.293s.213.164.278.114a.226.226,0,0,0,0-.308C5.538,18.3,5.409,18.25,5.33,18.314Z" transform="translate(0 -0.563)" fill="#edf4f8"/>
</svg>
