<svg xmlns="http://www.w3.org/2000/svg" width="30.539" height="23.753" viewBox="0 0 30.539 23.753">
  <path id="Icon_awesome-glasses" data-name="Icon awesome-glasses" d="M30.438,15.418l-2.4-9.634a4.663,4.663,0,0,0-6-3.295l-.809.269a.848.848,0,0,0-.537,1.073l.268.8a.848.848,0,0,0,1.073.537l.7-.233a2.267,2.267,0,0,1,1.758.092A2.1,2.1,0,0,1,25.565,6.4L27.6,14.557A14.673,14.673,0,0,0,23.3,13.9a13.907,13.907,0,0,0-6.089,1.418H13.33A13.894,13.894,0,0,0,7.24,13.9a14.674,14.674,0,0,0-4.306.661L4.974,6.4A2.1,2.1,0,0,1,6.054,5.032,2.266,2.266,0,0,1,7.812,4.94l.7.233a.848.848,0,0,0,1.073-.537l.268-.8a.848.848,0,0,0-.537-1.073l-.809-.269a4.663,4.663,0,0,0-6,3.294L.1,15.418a3.4,3.4,0,0,0-.1.821v3.725A6.073,6.073,0,0,0,6.108,26H8.076a6.08,6.08,0,0,0,6.091-5.587l.155-2.048h1.9l.155,2.048A6.079,6.079,0,0,0,22.463,26h1.968a6.073,6.073,0,0,0,6.108-6.038V16.24A3.406,3.406,0,0,0,30.438,15.418ZM10.783,20.159a2.7,2.7,0,0,1-2.707,2.45H6.108a2.684,2.684,0,0,1-2.715-2.645v-1.99a11.51,11.51,0,0,1,3.848-.685,10.4,10.4,0,0,1,3.708.685l-.166,2.185Zm16.363-.195a2.683,2.683,0,0,1-2.715,2.645H22.463a2.7,2.7,0,0,1-2.707-2.45l-.166-2.185a10.406,10.406,0,0,1,3.709-.685,11.509,11.509,0,0,1,3.847.686v1.99Z" transform="translate(0 -2.249)" fill="#121517"/>
</svg>
