<?xml version="1.0" encoding="utf-8"?>
<!-- Generator: Adobe Illustrator 23.0.3, SVG Export Plug-In . SVG Version: 6.00 Build 0)  -->
<svg version="1.1" id="Icons" xmlns="http://www.w3.org/2000/svg" xmlns:xlink="http://www.w3.org/1999/xlink" x="0px" y="0px"
	 viewBox="0 0 32 32" style="enable-background:new 0 0 32 32;" xml:space="preserve">
<path class="st0" d="M24,22H6c-0.6,0-1,0.4-1,1v5c0,0.6,0.4,1,1,1h18c0.6,0,1-0.4,1-1v-5C25,22.4,24.6,22,24,22z"/>
<path class="st0" d="M10,22H6v-2c0-0.6,0.4-1,1-1h2c0.6,0,1,0.4,1,1V22z"/>
<path class="st0" d="M25,15H14c-0.6,0-1,0.4-1,1v5c0,0.6,0.4,1,1,1h11c0.6,0,1-0.4,1-1v-5C26,15.4,25.6,15,25,15z"/>
<path class="st0" d="M25,15h-4v-2c0-0.6,0.4-1,1-1h2c0.6,0,1,0.4,1,1V15z"/>
<path class="st0" d="M17,8H6C5.4,8,5,8.4,5,9v5c0,0.6,0.4,1,1,1h11c0.6,0,1-0.4,1-1V9C18,8.4,17.6,8,17,8z"/>
<path class="st0" d="M10,8H6V6c0-0.6,0.4-1,1-1h2c0.6,0,1,0.4,1,1V8z"/>
<path class="st0" d="M17,8h-4V6c0-0.6,0.4-1,1-1h2c0.6,0,1,0.4,1,1V8z"/>
</svg>
