<?xml version="1.0" encoding="UTF-8" standalone="no"?> <svg xmlns="http://www.w3.org/2000/svg" width="512" height="512" viewBox="0 0 512 512">    <g>    <path d="M488,344H448V304a8,8,0,0,0-8-8H392a8,8,0,0,0-8,8v40H352V216h24a8,8,0,0,0,8-8V64a8,8,0,0,0-8-8H344V16a8,8,0,0,0-8-8H288a8,8,0,0,0-8,8V56H248V16a8,8,0,0,0-8-8H192a8,8,0,0,0-8,8V56H152V16a8,8,0,0,0-8-8H96a8,8,0,0,0-8,8V56H56a8,8,0,0,0-8,8V200H24a8,8,0,0,0-8,8V496a8,8,0,0,0,8,8H488a8,8,0,0,0,8-8V352A8,8,0,0,0,488,344Zm-88-32h32v32H400ZM296,24h32V56H296Zm-96,0h32V56H200Zm-96,0h32V56H104ZM336,488H32V360H336Zm0-144H32V216H336ZM64,200V72H368V200ZM480,488H352V360H480Z"/>    <path d="M160,88H88a8,8,0,0,0,0,16h72a8,8,0,0,0,0-16Z"/>    <path d="M192,88h-8a8,8,0,0,0,0,16h8a8,8,0,0,0,0-16Z"/>  </g></svg>